# xmcd CD database file
#
# Track frame offsets:
#	150
#	11530
#	32435
#	46885
#	64753
#	79030
#	97970
#	120085
#	138215
#	155398
#	168893
#	186185
#	207500
#	222430
#	236685
#	256555
#
# Disc length: 3599 seconds
#
# Revision: 0
# Processed by: cddbd v1.5.2PL0 Copyright (c) Steve Scherf et al.
# Submitted via: CDex 1.70beta3
#
DISCID=c20e0d10
DTITLE=King Fleming - King!
DYEAR=1995
DGENRE=Jazz
TTITLE0=Once Is Enough
TTITLE1=Time Out
TTITLE2=Bypass
TTITLE3=You And Only You
TTITLE4=Rive Gauche
TTITLE5=That's Tough
TTITLE6=Prelude In C Minor
TTITLE7=Eastgate
TTITLE8=A Fallen Leaf
TTITLE9=Loving You
TTITLE10=With All My Love
TTITLE11=Great Life
TTITLE12=Our Love
TTITLE13=Misty Night
TTITLE14=Little Caesar
TTITLE15=Have A Merry Christmas
EXTD=YEAR: 1995
EXTT0=
EXTT1=
EXTT2=
EXTT3=
EXTT4=
EXTT5=
EXTT6=
EXTT7=
EXTT8=
EXTT9=
EXTT10=
EXTT11=
EXTT12=
EXTT13=
EXTT14=
EXTT15=
PLAYORDER=
